Coordinates
version=1
nRows=9
nColumns=36
inDegrees=yes

Units are S.I. units (second, meters, Newtons, ...)
If the header above contains a line with 'inDegrees', this indicates whether rotational values are in degrees (yes) or radians (no).

endheader
time	pelvis_tilt	pelvis_list	pelvis_rotation	pelvis_tx	pelvis_ty	pelvis_tz	hip_flexion_r	hip_adduction_r	hip_rotation_r	knee_angle_r	knee_angle_r_beta	ankle_angle_r	subtalar_angle_r	mtp_angle_r	hip_flexion_l	hip_adduction_l	hip_rotation_l	knee_angle_l	knee_angle_l_beta	ankle_angle_l	subtalar_angle_l	mtp_angle_l	lumbar_extension	lumbar_bending	lumbar_rotation	arm_flex_r	arm_add_r	arm_rot_r	elbow_flex_r	pro_sup_r	arm_flex_l	arm_add_l	arm_rot_l	elbow_flex_l	pro_sup_l
      1.02000000	     -3.94137245	     -0.21825488	      4.25645975	      1.09669952	      0.90271644	     -0.25545145	     36.08360822	     -0.47649854	      3.31836528	     25.20684217	      0.43994239	      4.35121186	     -4.47827682	     -7.13268973	     -6.74972725	      5.43544049	      9.77085606	      7.32768498	      0.12789223	     14.10741501	     -5.03441286	     -7.13268973	     -7.20204678	      0.77735898	    -12.72819487	    -12.06903815	    -13.21426184	     -0.76742816	     36.99126003	    106.29193073	      1.25035615	    -19.92520978	     -0.83643595	     61.21418428	    105.75093447
      1.03000000	     -3.98961471	      0.00092784	      4.53616300	      1.10843806	      0.90077412	     -0.25486078	     35.48928789	     -0.68174797	      4.29547720	     21.57285756	      0.37651739	      4.99181877	     -4.35987513	     -7.13811417	     -7.78473998	      5.46572559	      9.55589581	      6.83836599	      0.11935200	     14.42470939	     -4.36603560	     -7.13811417	     -7.06834889	      0.49511899	    -13.24378694	    -12.46382118	    -13.11797077	     -1.37158176	     36.71348897	    106.28280895	      1.24217666	    -20.39761073	     -0.49391804	     62.12087518	    105.80133235
      1.04000000	     -4.27091405	      0.18799594	      4.85849207	      1.12016650	      0.89841038	     -0.25432921	     35.20465602	     -0.98553557	      4.83756057	     18.31552732	      0.31966626	      5.53492634	     -4.03008662	     -7.14146197	     -8.42106754	      5.48528640	      9.51535212	      6.64897587	      0.11604652	     14.56847358	     -3.82737349	     -7.14146197	     -6.66014226	      0.24692137	    -13.75434253	    -12.89538182	    -13.09656564	     -1.75116625	     36.47540827	    106.27272387	      1.25183343	    -20.77276131	     -0.18842460	     62.80315754	    105.85456756
      1.05000000	     -4.26355093	      0.34076660	      5.07303725	      1.13211696	      0.89637988	     -0.25351509	     34.54516799	     -1.12424261	      5.54572147	     15.33639517	      0.26767059	      5.71239778	     -4.67590198	     -7.16568566	     -9.30217977	      5.36871118	      8.53852932	      6.57722702	      0.11479427	     15.54922579	     -1.71056559	     -7.16568566	     -6.60660931	      0.06906812	    -14.12676859	    -13.28786110	    -12.91865037	     -2.87889895	     36.34386268	    106.45689279	      1.28717952	    -21.20813464	      0.23715033	     63.54268672	    105.67568138
      1.06000000	     -4.49129531	      0.46890465	      5.38545061	      1.14406105	      0.89404453	     -0.25286960	     34.28525198	     -1.41444673	      5.38124784	     13.04616616	      0.22769855	      6.26455583	     -4.39707175	     -7.16911281	     -9.84381780	      5.31762818	      8.61390155	      6.71678581	      0.11723003	     15.59174784	     -1.51719411	     -7.16911281	     -6.22680518	     -0.09991649	    -14.65056577	    -13.58192167	    -12.95425095	     -3.04154211	     36.09434458	    106.46145824	      1.25377617	    -21.55783411	      0.59396846	     63.96402473	    105.71884324
      1.07000000	     -4.64145702	      0.54270449	      5.69922926	      1.15616625	      0.89183144	     -0.25215418	     33.97446749	     -1.62322010	      4.89331401	     11.33558376	      0.19784326	      6.78514599	     -4.38443462	     -7.17191165	    -10.39402698	      5.18761925	      8.64220336	      6.98619497	      0.12193210	     15.61582497	     -1.32470181	     -7.17191165	     -5.94723015	     -0.19294920	    -15.15845035	    -13.78805306	    -12.98708816	     -3.21871112	     35.81666511	    106.45028621	      1.20899048	    -21.85922983	      0.92488454	     64.35066103	    105.76156468
      1.08000000	     -4.68680628	      0.53899270	      5.99832513	      1.16848250	      0.88985954	     -0.25131630	     33.58204806	     -1.70237267	      4.11023849	     10.23826044	      0.17869135	      7.25296822	     -4.61626906	     -7.17500569	    -10.96172997	      4.94888721	      8.66443822	      7.44806776	      0.12999331	     15.65962508	     -1.12370347	     -7.17500569	     -5.77466371	     -0.18248813	    -15.67885878	    -13.87655007	    -12.99343493	     -3.42066887	     35.51331801	    106.43150698	      1.09650633	    -22.15533700	      1.25775845	     64.64820399	    105.79297178
      1.09000000	     -4.68256055	      0.46948077	      6.28134549	      1.18103292	      0.88799087	     -0.25040245	     33.19524455	     -1.66989306	      3.06181013	      9.81359724	      0.17127958	      7.59557404	     -5.06222497	     -7.17965838	    -11.49686609	      4.62464005	      8.62925494	      8.07270305	      0.14089525	     15.78846168	     -0.87102204	     -7.17965838	     -5.64198736	     -0.07531254	    -16.19110942	    -13.89559714	    -12.99666927	     -3.67718446	     35.15558810	    106.40781671	      0.93070676	    -22.42247471	      1.54798165	     64.85507921	    105.79842994
      1.10000000	     -4.70267498	      0.38066792	      6.52127335	      1.19381807	      0.88619856	     -0.24943687	     32.84982132	     -1.56148899	      2.05380339	      9.89718262	      0.17273842	      7.98432372	     -5.72693374	     -7.18188892	    -11.92118841	      4.29197427	      8.57194460	      8.85105160	      0.15447999	     15.63673568	     -0.79529813	     -7.18188892	     -5.47257391	      0.05543068	    -16.56049854	    -13.98571363	    -13.01079213	     -3.83466058	     34.93478427	    106.38678917	      0.82616377	    -22.46380683	      1.71508333	     64.92837675	    105.80243123
